# xmcd
#
# Track frame offsets:
#	150
#	14600
#	28365
#	41235
#	55042
#	68732
#	81975
#	94927
#	109082
#	122232
#	133862
#	146515
#	159360
#	171365
#	185584
#	197145
#	209015
#	218675
#	230557
#	242442
#	254635
#	268727
#
# Disc length: 3730 seconds
#
# Revision: 1
# Processed by: cddbd v1.4PL0 Copyright (c) Steve Scherf et al.
# Submitted via: audiograbber 1.81.01
#
DISCID=560e9016
DTITLE=Lowell Fulson - The Complete Chess Masters [CD1]
DYEAR=1997
DGENRE=Blues
TTITLE0=Reconsider Baby
TTITLE1=I Believe I'll Give It Up
TTITLE2=Lonely Hours
TTITLE3=Check Yourself
TTITLE4=Loving You
TTITLE5=Do Me Right
TTITLE6=Lonely Hours
TTITLE7=Check Yourself
TTITLE8=Trouble, Trouble
TTITLE9=I Still Love You Baby
TTITLE10=It's A Long Time
TTITLE11=Rollin' Blues (Instrumental)
TTITLE12=It's All Your Fault Baby (It's Your Own Fault)
TTITLE13=Tollin' Bells
TTITLE14=Smokey Room
TTITLE15=It Took A Long Time
TTITLE16=Blues Rhumba
TTITLE17=Be On Your Merry Way
TTITLE18=Please Don't Go
TTITLE19=Don't Drive Me Baby
TTITLE20=You're Gonna Miss Me
TTITLE21=Rock 'Em Dead
EXTD=
EXTT0=
EXTT1=
EXTT2=
EXTT3=
EXTT4=
EXTT5=
EXTT6=
EXTT7=
EXTT8=
EXTT9=
EXTT10=
EXTT11=
EXTT12=
EXTT13=
EXTT14=
EXTT15=
EXTT16=
EXTT17=
EXTT18=
EXTT19=
EXTT20=
EXTT21=
PLAYORDER=
